<svg version="1" xmlns="http://www.w3.org/2000/svg" width="213.333" height="213.333" viewBox="0 0 160.000000 160.000000"><path d="M67.1 13.1c-16.4 4.2-31.2 15.2-44.8 33.4C13.1 58.8 5 76.2 2.5 89c-1.1 5.7-1.4 22.5-.5 26.7.5 2.1 1.1 4.9 1.3 6.3 2.4 12.8 13.3 27.5 22 29.7 4.9 1.2 11.4 1 15.2-.5 2.2-.9 15.4-8.5 29.3-16.9C83.7 125.9 95.5 119 96 119c.4 0 1-.3 1.2-.8.2-.4 8.2-5.5 17.8-11.2 9.6-5.8 18.2-10.9 19.1-11.5.9-.5 3.2-1.9 5-2.9 15-8.4 19-13.7 19.4-25.5.6-16.1-8.5-33-20.9-39-4.9-2.4-7.6-3.1-14.6-3.5-3.2-.1-5.4-.9-7.1-2.5-9.5-9-32.3-13.2-48.8-9z"/></svg>